<svg width="800" height="600" viewBox="0 0 800 600" fill="none" xmlns="http://www.w3.org/2000/svg">
<g clip-path="url(#clip0_3872_131)">
<path d="M295.196 348.455V395H286.696L266.446 365.705H266.105V395H256.264V348.455H264.901L284.991 377.727H285.401V348.455H295.196ZM318.918 395.682C315.387 395.682 312.334 394.932 309.759 393.432C307.198 391.917 305.221 389.811 303.827 387.114C302.433 384.402 301.736 381.258 301.736 377.682C301.736 374.076 302.433 370.924 303.827 368.227C305.221 365.515 307.198 363.409 309.759 361.909C312.334 360.394 315.387 359.636 318.918 359.636C322.448 359.636 325.493 360.394 328.054 361.909C330.63 363.409 332.615 365.515 334.009 368.227C335.402 370.924 336.099 374.076 336.099 377.682C336.099 381.258 335.402 384.402 334.009 387.114C332.615 389.811 330.63 391.917 328.054 393.432C325.493 394.932 322.448 395.682 318.918 395.682ZM318.963 388.182C320.569 388.182 321.91 387.727 322.986 386.818C324.062 385.894 324.872 384.636 325.418 383.045C325.978 381.455 326.259 379.644 326.259 377.614C326.259 375.583 325.978 373.773 325.418 372.182C324.872 370.591 324.062 369.333 322.986 368.409C321.91 367.485 320.569 367.023 318.963 367.023C317.342 367.023 315.978 367.485 314.872 368.409C313.781 369.333 312.955 370.591 312.395 372.182C311.849 373.773 311.577 375.583 311.577 377.614C311.577 379.644 311.849 381.455 312.395 383.045C312.955 384.636 313.781 385.894 314.872 386.818C315.978 387.727 317.342 388.182 318.963 388.182ZM357.389 395V348.455H388.207V356.568H367.23V367.659H386.162V375.773H367.23V395H357.389ZM407.855 395.682C404.325 395.682 401.272 394.932 398.696 393.432C396.135 391.917 394.158 389.811 392.764 387.114C391.37 384.402 390.673 381.258 390.673 377.682C390.673 374.076 391.37 370.924 392.764 368.227C394.158 365.515 396.135 363.409 398.696 361.909C401.272 360.394 404.325 359.636 407.855 359.636C411.385 359.636 414.431 360.394 416.991 361.909C419.567 363.409 421.552 365.515 422.946 368.227C424.34 370.924 425.037 374.076 425.037 377.682C425.037 381.258 424.34 384.402 422.946 387.114C421.552 389.811 419.567 391.917 416.991 393.432C414.431 394.932 411.385 395.682 407.855 395.682ZM407.901 388.182C409.507 388.182 410.848 387.727 411.923 386.818C412.999 385.894 413.81 384.636 414.355 383.045C414.916 381.455 415.196 379.644 415.196 377.614C415.196 375.583 414.916 373.773 414.355 372.182C413.81 370.591 412.999 369.333 411.923 368.409C410.848 367.485 409.507 367.023 407.901 367.023C406.279 367.023 404.916 367.485 403.81 368.409C402.719 369.333 401.893 370.591 401.332 372.182C400.787 373.773 400.514 375.583 400.514 377.614C400.514 379.644 400.787 381.455 401.332 383.045C401.893 384.636 402.719 385.894 403.81 386.818C404.916 387.727 406.279 388.182 407.901 388.182ZM453.719 380.136V360.091H463.401V395H454.105V388.659H453.741C452.954 390.705 451.643 392.348 449.81 393.591C447.991 394.833 445.772 395.455 443.151 395.455C440.817 395.455 438.764 394.924 436.991 393.864C435.219 392.803 433.832 391.295 432.832 389.341C431.848 387.386 431.348 385.045 431.332 382.318V360.091H441.014V380.591C441.029 382.652 441.582 384.28 442.673 385.477C443.764 386.674 445.226 387.273 447.06 387.273C448.226 387.273 449.317 387.008 450.332 386.477C451.348 385.932 452.166 385.129 452.787 384.068C453.423 383.008 453.734 381.697 453.719 380.136ZM480.827 374.818V395H471.145V360.091H480.372V366.25H480.781C481.554 364.22 482.849 362.614 484.668 361.432C486.486 360.235 488.69 359.636 491.281 359.636C493.705 359.636 495.819 360.167 497.622 361.227C499.425 362.288 500.827 363.803 501.827 365.773C502.827 367.727 503.327 370.061 503.327 372.773V395H493.645V374.5C493.66 372.364 493.115 370.697 492.009 369.5C490.902 368.288 489.38 367.682 487.44 367.682C486.137 367.682 484.986 367.962 483.986 368.523C483.001 369.083 482.228 369.902 481.668 370.977C481.122 372.038 480.842 373.318 480.827 374.818ZM523.821 395.568C521.17 395.568 518.768 394.886 516.616 393.523C514.48 392.144 512.783 390.121 511.526 387.455C510.283 384.773 509.662 381.485 509.662 377.591C509.662 373.591 510.306 370.265 511.594 367.614C512.882 364.947 514.594 362.955 516.73 361.636C518.882 360.303 521.238 359.636 523.798 359.636C525.753 359.636 527.382 359.97 528.685 360.636C530.003 361.288 531.063 362.106 531.866 363.091C532.685 364.061 533.306 365.015 533.73 365.955H534.026V348.455H543.685V395H534.139V389.409H533.73C533.276 390.379 532.632 391.341 531.798 392.295C530.98 393.235 529.912 394.015 528.594 394.636C527.291 395.258 525.7 395.568 523.821 395.568ZM526.889 387.864C528.45 387.864 529.768 387.439 530.844 386.591C531.935 385.727 532.768 384.523 533.344 382.977C533.935 381.432 534.23 379.621 534.23 377.545C534.23 375.47 533.942 373.667 533.366 372.136C532.791 370.606 531.957 369.424 530.866 368.591C529.776 367.758 528.45 367.341 526.889 367.341C525.298 367.341 523.957 367.773 522.866 368.636C521.776 369.5 520.95 370.697 520.389 372.227C519.829 373.758 519.548 375.53 519.548 377.545C519.548 379.576 519.829 381.371 520.389 382.932C520.965 384.477 521.791 385.689 522.866 386.568C523.957 387.432 525.298 387.864 526.889 387.864Z" fill="#B3B3B3"/>
<path d="M388.364 274.091V272.545C388.394 267.242 388.864 263.015 389.773 259.864C390.712 256.712 392.076 254.167 393.864 252.227C395.652 250.288 397.803 248.53 400.318 246.955C402.197 245.742 403.879 244.485 405.364 243.182C406.848 241.879 408.03 240.439 408.909 238.864C409.788 237.258 410.227 235.47 410.227 233.5C410.227 231.409 409.727 229.576 408.727 228C407.727 226.424 406.379 225.212 404.682 224.364C403.015 223.515 401.167 223.091 399.136 223.091C397.167 223.091 395.303 223.53 393.545 224.409C391.788 225.258 390.348 226.53 389.227 228.227C388.106 229.894 387.5 231.97 387.409 234.455H368.864C369.015 228.394 370.47 223.394 373.227 219.455C375.985 215.485 379.636 212.53 384.182 210.591C388.727 208.621 393.742 207.636 399.227 207.636C405.258 207.636 410.591 208.636 415.227 210.636C419.864 212.606 423.5 215.47 426.136 219.227C428.773 222.985 430.091 227.515 430.091 232.818C430.091 236.364 429.5 239.515 428.318 242.273C427.167 245 425.545 247.424 423.455 249.545C421.364 251.636 418.894 253.53 416.045 255.227C413.652 256.652 411.682 258.136 410.136 259.682C408.621 261.227 407.485 263.015 406.727 265.045C406 267.076 405.621 269.576 405.591 272.545V274.091H388.364ZM397.364 303.182C394.333 303.182 391.742 302.121 389.591 300C387.47 297.848 386.424 295.273 386.455 292.273C386.424 289.303 387.47 286.758 389.591 284.636C391.742 282.515 394.333 281.455 397.364 281.455C400.242 281.455 402.773 282.515 404.955 284.636C407.136 286.758 408.242 289.303 408.273 292.273C408.242 294.273 407.712 296.106 406.682 297.773C405.682 299.409 404.364 300.727 402.727 301.727C401.091 302.697 399.303 303.182 397.364 303.182Z" fill="#B3B3B3"/>
</g>
<defs>
<clipPath id="clip0_3872_131">
<rect width="800" height="600" fill="white"/>
</clipPath>
</defs>
</svg>
